<svg xmlns="http://www.w3.org/2000/svg" width="177" height="87" fill="#000" xmlns:v="https://vecta.io/nano"><path d="M36.896 36.214c-.233-.172-.498-.296-.779-.365s-.574-.081-.86-.037a2.19 2.19 0 0 0-.808.297 2.18 2.18 0 0 0-.629.585l-4.539 6.239h5.459l2.64-3.6a2.23 2.23 0 0 0 .404-1.659 2.24 2.24 0 0 0-.888-1.461zm-21.421 8.432v.634a10.51 10.51 0 0 0 .808 4.039 10.55 10.55 0 0 0 2.3 3.424c.985.98 2.155 1.758 3.442 2.288a10.66 10.66 0 0 0 8.121 0c1.287-.53 2.457-1.308 3.442-2.288a10.55 10.55 0 0 0 2.3-3.424 10.51 10.51 0 0 0 .808-4.039c.012-.211.012-.423 0-.634H15.475z"/><path d="M42.355 35.041a22.06 22.06 0 0 1 2.706 16.612c-1.329 5.676-4.851 10.603-9.804 13.715-2.906 1.775-6.197 2.831-9.598 3.08a21.43 21.43 0 0 1-9.948-1.649 26.26 26.26 0 0 0 13.067 2.903 26.24 26.24 0 0 0 12.798-3.912c5.953-3.586 10.249-9.357 11.961-16.067a26.24 26.24 0 0 0-2.812-19.796 25.76 25.76 0 0 0-6.909-7.435 25.92 25.92 0 0 0-9.258-4.206 25.99 25.99 0 0 0-10.173-.326c-3.379.563-6.612 1.789-9.511 3.606a26.69 26.69 0 0 0-9.355 9.655 26.51 26.51 0 0 0-3.436 12.967c.266-3.402 1.333-6.693 3.115-9.608s4.228-5.373 7.142-7.173c2.47-1.479 5.21-2.455 8.062-2.871a21.87 21.87 0 0 1 8.551.445 21.81 21.81 0 0 1 7.716 3.692c2.301 1.727 4.234 3.891 5.687 6.367M13.777 52.468a15.4 15.4 0 0 1-1.863-11.562 15.47 15.47 0 0 1 6.815-9.548 14.99 14.99 0 0 1 6.704-2.145c2.375-.173 4.757.221 6.947 1.149-2.813-1.446-5.956-2.14-9.119-2.015s-6.241 1.066-8.929 2.729A18.39 18.39 0 0 0 5.979 42.28a18.29 18.29 0 0 0 1.963 13.811 18.02 18.02 0 0 0 4.825 5.192c1.938 1.396 4.135 2.396 6.464 2.941a18.18 18.18 0 0 0 7.104.236 18.14 18.14 0 0 0 6.647-2.506 18.6 18.6 0 0 0 6.55-6.748 18.49 18.49 0 0 0 2.398-9.072 15.19 15.19 0 0 1-2.182 6.712c-1.245 2.037-2.952 3.755-4.986 5.017a15.3 15.3 0 0 1-5.645 1.984c-1.995.284-4.027.172-5.978-.33a15.29 15.29 0 0 1-5.39-2.593 15.2 15.2 0 0 1-3.972-4.457" fill-rule="evenodd"/><path d="M67.418 60.607h-3.677V30.374h12.65c6.213 0 9.666 3.811 9.666 9.158s-3.537 9.148-9.667 9.148h-8.972v11.926zm0-26.715v11.247h8.972c3.537 0 6.037-1.665 6.037-5.642s-2.499-5.628-6.037-5.628h-8.972v.023zm35.627 27.231c-8.251 0-14.924-7.037-14.924-15.784s6.673-15.727 14.925-15.727c3.091-.073 6.118.875 8.61 2.696a13.91 13.91 0 0 1 5.16 7.366h-3.914a10.38 10.38 0 0 0-3.9-4.808 10.46 10.46 0 0 0-5.956-1.748c-6.212 0-11.271 5.56-11.271 12.221s4.999 12.208 11.271 12.208c2.12.007 4.194-.613 5.959-1.78s3.142-2.829 3.956-4.776h3.855c-.885 2.943-2.706 5.521-5.188 7.348s-5.494 2.804-8.582 2.785h-.001zm30.583 0c-8.253 0-14.914-7.037-14.914-15.784s6.661-15.727 14.914-15.727c3.091-.075 6.119.872 8.611 2.693s4.306 4.413 5.158 7.369h-3.843a10.38 10.38 0 0 0-3.929-4.827 10.47 10.47 0 0 0-5.997-1.729c-6.202 0-11.271 5.56-11.271 12.221s5.069 12.208 11.271 12.208c2.121.009 4.197-.61 5.965-1.777a10.66 10.66 0 0 0 3.961-4.779h3.843c-.884 2.943-2.704 5.522-5.187 7.349s-5.494 2.804-8.582 2.784zm21.445-9.324l-3.219 8.808h-4.008l11.353-30.232h4.173l11.129 30.233h-4.115l-3.158-8.808h-12.155zm6.153-16.922l-4.881 13.487h9.715l-4.834-13.487zm12.556-.152c-.232.246-.513.439-.827.566a2.36 2.36 0 0 1-.988.172c-.331.002-.66-.062-.966-.189s-.583-.314-.814-.55c-.239-.236-.428-.518-.555-.828s-.192-.643-.188-.978.075-.671.213-.98.338-.586.588-.814c.229-.239.506-.429.812-.559a2.45 2.45 0 0 1 .968-.192 2.56 2.56 0 0 1 .984.194 2.54 2.54 0 0 1 .832.557c.241.233.43.513.557.821s.192.639.185.974a2.57 2.57 0 0 1-.742 1.805h-.059zm-3.325-3.366c-.207.201-.37.442-.48.708a2.1 2.1 0 0 0-.156.84c-.006.291.047.581.156.851a2.15 2.15 0 0 0 .48.721c.231.228.51.401.817.509s.633.145.956.112a2.2 2.2 0 0 0 .913-.307 2.19 2.19 0 0 0 .693-.666 2.18 2.18 0 0 0 .359-1.219c.006-.288-.047-.574-.157-.84s-.273-.508-.48-.708a2.13 2.13 0 0 0-.704-.486c-.266-.113-.551-.171-.84-.17a2.25 2.25 0 0 0-1.557.657zm1.497.141c.255-.019.509.021.744.117.14.057.258.158.336.286s.114.279.1.429a.62.62 0 0 1-.059.309.63.63 0 0 1-.2.242 1.74 1.74 0 0 1-.401.141.61.61 0 0 1 .277.081c.084.049.155.118.206.2a.62.62 0 0 1 .142.434v.54h-.46v-.364c0-.317-.083-.551-.26-.634a1.18 1.18 0 0 0-.542-.082h-.377v1.114h-.483v-2.791h.919l.058-.024zm.52.458c-.196-.074-.404-.11-.613-.106h-.437v1.031h.424a1.8 1.8 0 0 0 .46 0 .45.45 0 0 0 .218-.17c.053-.078.08-.17.077-.264.025-.041.042-.087.05-.135a.37.37 0 0 0-.071-.275.36.36 0 0 0-.108-.094v.01.001z"/></svg>