<svg xmlns="http://www.w3.org/2000/svg" width="177" height="87" fill="none" xmlns:v="https://vecta.io/nano"><g clip-path="url(#A)" fill="#000"><path d="M85.349 87c-8.874-.138-19.283-4.27-27.775-12.745-8.686-8.663-12.988-19.237-12.799-31.488.18-11.71 4.5-21.807 12.827-30.059C66.316 4.072 76.949-.197 89.269.01c11.947.197 22.198 4.618 30.526 13.112 8.46 8.626 12.596 19.094 12.43 31.162-.318 23.451-19.688 42.77-46.876 42.715zM65.817 43.51h.06l.239-.966c.374-1.444.705-2.9 1.341-4.252.774-1.645 1.602-3.263 2.45-4.87.695-1.31 1.441-2.593 2.372-3.758 1.216-1.52 2.192-3.18 2.98-4.957l.888-2.061c.351-.807.737-1.585 1.29-2.291.493-.632.889-1.337 1.368-1.978a.89.89 0 0 0 .115-.94c-.055-.146-.129-.293-.198-.454l.304-.284c.511-.486 1.009-.98 1.539-1.448.906-.806 1.989-1.342 3.081-1.855.498-.234 1.022-.302 1.589-.247a14.83 14.83 0 0 0 2.114.051c.35-.014.654.031.939.21.468.29.929.591 1.383.903.75.522 1.239 1.246 1.51 2.103.18.573.313 1.164.442 1.75.036.178.11.28.272.357a11.45 11.45 0 0 1 2.146 1.369c.171.138.327.27.576.221.083-.019.194.042.281.087a7.95 7.95 0 0 1 .552.325c.632.416.682.934.144 1.471-.065.064-.148.11-.208.178-.1.114-.225.229-.284.367-.295.651-.673 1.237-1.299 1.622l-1.197.71c-.05.031-.106.063-.156.1-.382.257-.797.412-1.271.399-.268-.005-.534.041-.802.073-.16.019-.253-.027-.234-.22l.295-.193-2.79-.522c-.144.549-.263 1.127-.442 1.681a.98.98 0 0 0 .064.788 40.69 40.69 0 0 1 .83 1.764c.898 2.089 1.16 4.321 1.432 6.552.055.467-.008.966.291 1.392.035.052.013.147.018.225l-.06.046-.474-.288c.023.096.031.161.055.22.253.665.295 1.342.229 2.048-.054.587-.004 1.183-.004 1.773 0 .055-.023.11-.055.238l-.783-.522c-.295.724-.331 1.461-.414 2.222-.497-.091-.667-.454-.838-.77l-.87 2.419c-.557 1.575-1.239 3.088-2.192 4.471-.11.16-.171.367-.231.559-.073.238-.143.485-.183.728-.079.454-.134.911-.198 1.374.105.019.147.031.193.031l3.5-.003c.097 0 .207-.079.29-.143.35-.274.663-.601 1.036-.824.696-.422 1.46-.601 2.27-.339.733.238 1.373.609 1.765 1.291h1.551c.097-.719.231-1.416.286-2.121.078-1.003.097-2.011.143-3.014.055-1.261.133-2.511.46-3.739.046-.183.005-.389.005-.605l-.304.142c-.023-.014-.051-.027-.074-.041.092-.393.129-.815.295-1.172.6-1.286 1.227-2.56 1.879-3.821.207-.404.147-.44-.083-.705.013-.311-.189-.522-.386-.737-.06-.075-.142-.129-.235-.154a.46.46 0 0 0-.281.012c-.419.123-.838.192-1.289.15-1.01-.095-1.395-.449-1.511-1.447-.01-.083-.087-.174-.161-.225-.308-.206-.589-.44-.76-.779-.034-.06-.079-.113-.133-.155-.281-.262-.3-.487-.042-.77.068-.074.143-.14.226-.197.331-.233.474-.559.515-.953.051-.48.148-.962.198-1.443.023-.207.134-.321.281-.445a9.37 9.37 0 0 1 2.432-1.46c.295-.124.414-.321.401-.618a2.73 2.73 0 0 0-.042-.431c-.079-.476-.208-.935-.475-1.352-.138-.215-.042-.371.217-.367.138 0 .276.023.406.064.529.155.962.467 1.363.829.262.238.521.487.824.771.07-.253.152-.463.18-.684a15.76 15.76 0 0 0 .101-1.25c.019-.444.148-.531.557-.348a1.63 1.63 0 0 1 .75.655c.535.884 1.032 1.788 1.203 2.827.019.1.083.22.166.284.617.472 1.091 1.067 1.501 1.718.631 1.003 1.077 2.089 1.437 3.211.036.112.113.207.216.266.889.454 1.612 1.108 2.235 1.875 1.33 1.634 2.155 3.521 2.725 5.529.291 1.031.512 2.071.512 3.152l.037 3.015c0 .325-.06.651-.074.981-.005.087.055.233.115.252.069.023.189-.051.267-.106.055-.041.088-.124.124-.187l5.591-9.58 4.302-7.389.981-1.654c.12-.202.281-.252.525-.215.336.055.686.072 1.028.055.405-.023.768-.197.999-.541.474-.719.622-1.7-.06-2.488-.668-.765-1.492-1.315-2.473-1.595-.654-.186-1.322-.197-1.963.069-.538.221-.962.582-1.059 1.178-.184 1.132.401 2.117 1.226 2.533.092.046.202.179.202.274.009.431-.161.729-.658.701-.175-.009-.346-.059-.549-.096-.064.087-.147.174-.207.276l-1.939 3.193-5.508 9.071c-.037.06-.083.114-.147.197l-.461-1.809 7.438-11.751c-.064-.119-.124-.206-.161-.302l-.391-.998c-.07-.183-.116-.38-.217-.546-1.5-2.482-3.319-4.758-5.412-6.77a34.08 34.08 0 0 0-4.411-3.588c-2.951-2.008-6.209-3.526-9.649-4.495-2.384-.677-4.838-1.082-7.314-1.209-1.019-.049-2.039-.052-3.058-.009-1.05.041-2.095.114-3.136.243a32.42 32.42 0 0 0-7.309 1.8 32.95 32.95 0 0 0-8.4 4.59c-1.986 1.49-3.798 3.195-5.403 5.085a33.02 33.02 0 0 0-6.49 11.911 33.09 33.09 0 0 0-1.385 8.994c-.015.889.036 1.782.077 2.676.078 1.64.327 3.261.663 4.869.064.312.148.619.222.926h10.932c-.045-.096-.078-.155-.105-.21-.323-.614-.663-1.223-.962-1.852-1.433-3.014-2.101-6.203-2.137-9.529-.014-1.242.083-2.484.253-3.715.368-2.708 1.133-5.292 2.409-7.72 1.15-2.179 2.658-4.152 4.462-5.836 1.787-1.686 3.827-3.028 5.904-4.312.102-.064.231-.083.346-.119l.07.055c-.019.138-.023.275-.06.404-.345 1.118-1.114 1.896-2.058 2.524a21.38 21.38 0 0 0-3.643 3.102c-1.728 1.815-3.139 3.906-4.172 6.184-1.216 2.68-1.828 5.493-1.94 8.42a18.58 18.58 0 0 0 .184 3.354c.042.431.129.866.212 1.305l-.001.001zm35.331 20.642h-10.17c-.125 0-.245.018-.369.023l-1.884.05c-.521 0-1.04-.068-1.561-.068L62.7 64.152h-.317c2.174 2.717 4.656 5.002 7.497 6.89 6.163 4.091 12.961 5.955 20.348 5.59 6.618-.33 12.61-2.469 17.966-6.354 2.398-1.739 4.547-3.793 6.388-6.108H102.75c-.038.047-.073.079-.097.119-.382.66-.802 1.306-1.138 1.989a16.4 16.4 0 0 1-3.661 4.889c-1.175 1.079-2.532 1.944-4.007 2.556-1.363.559-2.786.88-4.259.976-1.507.096-2.988.005-4.445-.384-2.239-.601-4.144-1.769-5.808-3.354-.884-.843-1.671-1.769-2.311-2.809-.069-.114-.101-.248-.152-.371.027-.019.055-.036.087-.055.069.059.147.114.207.178.253.294.488.61.755.894 1.571 1.668 3.506 2.749 5.665 3.454 1.22.399 2.474.65 3.748.807 1.197.146 2.405.178 3.602 0 2.533-.38 4.596-1.631 6.341-3.446 1.194-1.241 2.17-2.643 3.068-4.109l.802-1.352h.001zm19.256-30.393c-.023 0-.046-.004-.07-.004l-10.238 17.688H120.9a33.41 33.41 0 0 0-.496-17.684zM94.031 80.852c.093-.078.152-.124.212-.17.589-.467.654-1.406.115-1.933-.423-.413-.958-.482-1.52-.427-.487.046-.97.11-1.459.17l-.954.124.65 5.419c.078.009.105.019.133.019l2.349-.28c.498-.068.977-.206 1.359-.564a1.31 1.31 0 0 0 .358-.543c.072-.208.089-.431.052-.647s-.129-.421-.267-.593-.317-.307-.52-.392c-.148-.073-.308-.114-.507-.183zm-20.752-5.745l-2.105 5.03.557.215 1.691-4.027.064.014.713 3.422 2.943-1.915.046.041-1.686 4.036.557.229 2.124-5.067-.581-.229-3.021 2.002-.073-.312-.566-2.872c-.083-.413-.175-.5-.663-.569zM84.024 78.4l-.3 5.475.589.051.239-4.357c.023-.004.051-.004.073-.008l1.816 2.978 2.132-2.781.069.027-.23 4.353h.589l.295-5.434c-.377-.078-.644-.041-.88.293-.544.779-1.133 1.521-1.703 2.278l-.222.28-1.851-3.102-.617-.051h.001zm20.324-.123c.184-.174.345-.307.479-.458.718-.811.285-2.223-.77-2.493-.515-.132-1.017-.046-1.501.174l-1.967.889c-.064.033-.129.073-.207.12l2.284 4.984.553-.252-.88-1.943 1.433-.65c.078.032.129.055.175.078l1.874 1.022c.336.183.631.133.935-.16l-2.408-1.31zM78.865 7.312a12.42 12.42 0 0 0 .309-.207c.377-.284.681-.617.713-1.122.074-1.182-.806-1.983-1.984-1.736-.806.165-1.593.444-2.385.673-.106.031-.212.072-.346.114l1.602 5.237.572-.174-.618-2.048 1.524-.463 2.169 1.576.705-.215-2.261-1.636v.001zM94.11 3.097l-1.078 5.378.58.114.424-2.056c.065-.005.092-.019.12-.013l1.331.261c.074.018.152.1.194.174.133.248.249.503.373.76l.724 1.502.723.143-1.202-2.52c.152-.013.239-.027.327-.036.705-.051 1.248-.476 1.423-1.108.202-.738-.019-1.37-.655-1.769-.268-.161-.56-.28-.865-.352-.617-.152-1.243-.257-1.87-.381l-.548-.096zm-4.726 5.232c1.312.083 2.805-.967 2.824-2.859.014-1.595-1.225-2.813-2.828-2.813-1.608 0-2.814 1.237-2.818 2.872 0 1.58 1.252 2.869 2.823 2.8zM72.16 6.537c-1.317-.055-2.847 1.008-2.851 2.772-.005 1.604 1.257 2.905 2.813 2.91 1.581.004 2.837-1.211 2.842-2.75.004-1.64-1.225-2.927-2.805-2.931v-.001zm10.118 74.031l-2.952-.673.424-1.86 3.297.737.105-.523-3.873-.874-1.224 5.355 3.919.885.114-.522-3.33-.76.442-1.906 2.943.659c.05-.178.088-.329.133-.518v.001zm29.848-66.064l.323-.416-2.363-1.87 1.202-1.507 2.653 2.085.331-.417-3.136-2.465-3.436 4.32 3.169 2.493.318-.427-2.676-2.112 1.23-1.543 2.385 1.86v-.001zM95.689 77.869l1.492 5.301 3.879-1.081c-.061-.187-.102-.329-.156-.507l-3.295.906-.529-1.892 2.91-.82-.147-.508-2.911.801-.521-1.846 3.261-.911-.147-.514-3.837 1.072zm6.383-72.748l-4.218 4.325.483.183.083.055 1.004-1.195 2.906 1.104.087 1.589.595.221-.365-6.057a25.01 25.01 0 0 1-.574-.225h-.001zM81.137 3.404l.783 5.433.589-.087-.266-1.924 1.027-.151c.479-.064.958-.138 1.378-.408.667-.426.953-1.025.806-1.814-.138-.706-.562-1.155-1.258-1.297-.329-.063-.666-.075-.999-.037-.677.069-1.349.183-2.058.285zm47.432 39.916c-.041-.15-.05-.324-.134-.453-.262-.417-.511-.858-.838-1.219-.769-.847-1.786-.49-2.265.096-.321.382-.547.834-.659 1.319-.115.518.235.885.755.765.221-.052.442-.128.658-.207.193-.076.399-.113.607-.108a1.55 1.55 0 0 1 .6.136c.152.068.309.138.47.178.438.124.779-.105.806-.508v-.001zm-76.737.715c.406-.036.585-.192.572-.559a1.18 1.18 0 0 0-.079-.398c-.212-.509-.531-.966-.935-1.342-.529-.499-1.151-.582-1.764-.187-.663.431-.977 1.099-1.11 1.851-.055.311.23.609.553.59.239-.014.488-.064.709-.151.507-.197.995-.224 1.492.014.175.083.374.124.562.183v-.001zm17.644-31.437l-.083.33c-.184.774-.631 1.337-1.376 1.631-1.06.416-2.234-.064-2.828-1.132-.774-1.398.014-3.006 1.598-3.244.253-.036.51-.036.791-.055l.052-.518c-1.153-.256-2.4.422-2.981 1.393-.626 1.049-.424 2.465.498 3.418.866.898 2.252 1.131 3.297.559.954-.518 1.585-1.526 1.507-2.341-.159-.01-.317-.024-.475-.042v-.001zM59.001 56.397c.014-.017.027-.036.037-.055-.351-.009-.369-.249-.378-.482l-.083-1.874c-.004-.119.01-.242.015-.363.023 0 .046-.004.069-.004l.875 2.859h.106l.903-2.853c.042.083.055.101.055.119l-.031 2.057c0 .114 0 .233-.037.339s-.115.197-.143.243h1.34c-.304-.064-.346-.298-.35-.532l-.055-2.533c-.005-.403.014-.403.392-.518.008-.004.008-.027.023-.063h-1.124c-.225.756-.392 1.539-.696 2.276h-.087l-.708-2.282h-1.12c.032.041.042.064.06.073.359.139.373.143.369.518-.01.711-.005 1.421-.055 2.126-.024.344.087.797-.429.953l1.055-.004zm47.24 5.122c.009-.018.022-.036.032-.055-.281-.027-.332-.215-.342-.426l-.082-1.943c-.005-.124 0-.247 0-.371.023-.005.051-.005.074-.009l.875 2.859c.028 0 .055.005.087.005.042-.083.088-.161.116-.249l.727-2.317c.023-.074.06-.143.088-.211l.064.014v.243l-.041 1.851c-.005.229.05.495-.332.554l.06.046h1.441c-.217-.072-.336-.21-.345-.435l-.083-2.492c0-.28-.064-.65.386-.733h-1.081l-.318 1.146-.364 1.136c-.027 0-.06-.005-.088-.005l-.368-1.118-.341-1.154h-1.091c.359.159.405.21.396.613l-.083 2.31c-.009.307-.028.613-.406.738l1.019.004zm-9.902-3.664c.327.083.303.333.308.572l.004.619v.407h-1.027c.023-.508-.055-.994.055-1.452l.272-.147h-1.359c.083.115.245.234.249.358.031.851.051 1.709.036 2.56-.004.266.083.624-.331.733h1.34c-.221-.096-.253-.28-.258-.467-.008-.321-.008-.642-.008-.963v-.388h1.013c0 .481.018.93-.01 1.374-.008.155-.124.307-.179.44h1.285c-.244-.079-.312-.253-.318-.468l-.027-2.721c0-.11.046-.22.065-.311.101-.047.17-.083.24-.115-.005-.01-.005-.019-.011-.033H96.34l-.001.001zm6.614.155c.308-.068.506.023.612.266.133.306.193.641.059.957-.059.147-.215.261-.34.376-.051.046-.134.055-.194.078l.525 1.301c.222.522.801.756 1.345.545.009-.004.005-.027.009-.041-.395-.201-1.087-1.429-1.096-1.951.093-.078.194-.151.281-.233.3-.289.355-.646.226-1.013-.125-.344-.448-.435-.783-.458-.037-.005-.078-.005-.114-.005l-1.494.005c-.055 0-.11.014-.17.023l-.06.059c.438-.014.411.262.411.518v2.336c0 .284.072.605-.304.743h1.413c-.326-.207-.332-.207-.336-.431l-.041-2.63c0-.147.031-.293.051-.445v.001zm-19.832 3.468c-.25-.087-.305-.261-.305-.494l-.027-2.767c0-.091.046-.183.065-.261.327-.055.525.068.631.394.092.28.115.563.019.852-.097.274-.313.393-.558.426l.212.459c.143.343.262.701.424 1.04.184.389.885.564 1.275.335-.451-.289-1.11-1.461-1.106-1.966.097-.078.194-.151.281-.233.304-.29.341-.646.222-1.013-.116-.344-.433-.422-.76-.458-.055-.005-.106-.005-.161-.005l-1.492.005c-.051 0-.097.014-.171.023.382.188.382.188.382.618l-.004 2.359c0 .274.042.582-.341.687h1.415zm-14.955-1.832l.234.554c.12.298.226.601.364.889.198.417.88.605 1.266.399-.608-.518-.843-1.25-1.114-1.97l.211-.155c.162-.118.283-.284.346-.473a.96.96 0 0 0 .008-.585c-.096-.316-.373-.49-.814-.513-.06-.005-.125-.005-.184-.005l-1.423.005c-.046 0-.097.014-.143.023-.014.018-.027.036-.046.055.331-.005.391.201.391.426l-.019 2.652c0 .243-.051.435-.323.518h1.423c-.249-.055-.336-.225-.336-.444l-.004-2.832c0-.242.143-.329.364-.219a.6.6 0 0 1 .234.207c.359.562.152 1.227-.437 1.471v-.001zm-.143-5.081l.401 1.032c.308.797.506.925 1.358.852.051-.005.102-.028.184-.055-.46-.225-1.119-1.357-1.169-1.971.073-.059.166-.119.239-.192.281-.27.401-.591.299-.977-.087-.348-.359-.471-.677-.526a1.61 1.61 0 0 0-.3-.023l-1.468.004a.24.24 0 0 0-.093.023c.097.119.249.225.276.352.055.253.052.514.047.775l-.032 1.943c-.005.242.023.503-.309.59h1.377c-.23-.068-.295-.233-.3-.444l-.037-2.583c0-.155.037-.312.055-.454.285-.114.525.013.645.321.253.627.059 1.131-.498 1.332zm16.344-17.249c.051-.123.087-.201.11-.284.167-.573.189-1.159.102-1.745-.212-1.457-.724-2.772-1.861-3.78-.695-.617-1.456-1.122-2.377-1.337-.156-.036-.331-.023-.492-.031-.005.031-.014.059-.019.091.083.046.161.095.245.133.756.31 1.424.801 1.943 1.429.995 1.2 1.575 2.607 2.018 4.078.133.448.211.925.331 1.448v-.001zm11.681 17.195c-.019-.147-.028-.367-.069-.582-.125-.684-.493-1.077-1.096-1.196-.604-.114-1.208.128-1.524.697-.456.819-.465 1.694-.028 2.519.433.811 1.667.875 2.257.166.367-.445.432-.981.46-1.603zm25.629.068c0-.151.009-.308 0-.458-.055-.706-.451-1.232-1.027-1.366-.704-.16-1.322.087-1.662.743-.41.783-.382 1.599-.023 2.401.064.142.175.269.294.371.71.586 1.774.363 2.192-.454.198-.384.254-.806.226-1.237zM109.529 9.474l.277-.487-3.75-2.152-.276.486 1.603.934-2.474 4.27.516.307 2.488-4.274 1.616.917zM76.227 61.555c.004-.102.018-.183.013-.266-.009-.334-.042-.669-.036-1.004a47.67 47.67 0 0 1 .042-1.622c.014-.334-.079-.723.396-.851h-1.114c-.015.018-.033.036-.047.055.46.004.498.321.511.623.023.573.023 1.141.028 1.714 0 .009-.019.018-.07.055l-1.344-2.446h-1.046c.341.05.424.28.437.568 0 .037.005.078.005.114-.018.67-.004 1.343-.065 2.012-.031.343.115.815-.424.953h1.193c.009-.019.023-.041.031-.06-.437.032-.538-.229-.542-.563l-.023-2.125c0-.019.023-.032.055-.078l.35.632 1.036 1.911c.129.224.291.394.613.38zm8.727-8.779c-.004-.014-.004-.027-.009-.046h-1.137l-.047.06c.526 0 .503.38.534.696.037.334.042.669.052 1.004.008.224 0 .448 0 .673-.033.009-.066.019-.102.027l-1.349-2.46h-1.028c-.014.019-.023.037-.037.055.378.014.451.252.447.531l-.088 2.493c-.009.252-.046.494-.359.573h1.216c-.511-.189-.53-.189-.557-.688-.032-.669-.032-1.342-.042-2.011 0-.036.023-.072.055-.151l.267.472 1.184 2.172a.52.52 0 0 0 .548.288c.005-.114.019-.215.019-.321l.005-2.606c0-.16.004-.325.055-.476.031-.096.143-.166.229-.238.042-.024.098-.028.144-.047zm25.892 2.397c.092-.064.142-.096.198-.133-.005-.014-.005-.032-.009-.047h-1.322c.028.06.06.083.097.078.22-.008.299.128.308.317.009.22.028.444 0 .66-.014.119-.088.311-.17.329-.134.032-.351.005-.438-.087a1.74 1.74 0 0 1-.386-.632 3.2 3.2 0 0 1-.069-1.696 2.38 2.38 0 0 1 .303-.756c.184-.302.543-.389.898-.28.314.092.415.248.443.66.004.055.023.106.036.155.023 0 .046-.004.065-.004l.064-.851c-.096-.037-.17-.087-.248-.092-.291-.023-.58-.059-.871-.036-.764.059-1.395.59-1.515 1.342-.069.426-.06.884.01 1.315.101.636.58 1.08 1.178 1.108.447.023.899-.041 1.35-.078.074-.005.142-.052.212-.074-.268-.408-.129-.807-.134-1.201v.001zm-17.952 6.341c.014-.023.023-.046.037-.069-.318.028-.428-.137-.432-.398l-.037-2.745c0-.1.032-.202.051-.293.304-.036.525.101.612.431.069.274.087.568.078.852-.009.316-.147.568-.515.651.175.018.323.008.465-.032.543-.17.888-.725.802-1.265-.088-.563-.41-.807-1.083-.82h-.046l-1.332.004c-.055 0-.11.014-.239.028l.414.147c.019.133.051.261.051.388v2.406c-.004.293.027.618-.387.709l1.562.005zm6.162-3.661l-.014.041c.046.019.093.051.139.055.207.032.262.161.23.349-.014.073-.023.151-.046.224l-.756 2.351c-.083.247-.16.503-.497.636h.953c-.069-.105-.211-.224-.198-.321.042-.32.138-.636.221-.966l.838-.046.203 1.141-.203.187h1.353c-.243-.096-.312-.302-.363-.513l-.686-2.892c-.018-.087-.05-.169-.078-.252l-1.097.005v-.001zm13.449 3.661c-.249-.102-.294-.316-.345-.514l-.47-1.887c-.097-.412-.18-.829-.272-1.255h-1.138c.035.047.086.079.143.091.222.028.281.155.235.357-.013.06-.018.119-.037.179l-.787 2.442c-.078.233-.147.481-.419.581h.893c-.074-.096-.216-.201-.203-.284.051-.335.148-.664.226-.998l.833-.046.226 1.209c-.074.037-.138.074-.253.134l1.368-.01v.001zm-32.041-5.123c-.221-.151-.266-.183-.346-.503l-.696-2.919c-.018-.087-.05-.169-.073-.233h-1.18c.503.242.521.248.364.76-.245.802-.506 1.599-.783 2.391-.065.183-.217.339-.318.495h.833c-.069-.111-.211-.225-.202-.321.042-.321.137-.632.221-.971h.843l.198 1.113-.226.188h1.364-.001zm.097 5.077c-.244-.115-.308-.335-.359-.559l-.686-2.913c-.014-.064-.042-.124-.06-.189h-1.146c.036.041.051.064.069.074.401.147.414.151.291.569l-.802 2.501c-.07.21-.157.412-.397.513h.907c-.078-.101-.225-.21-.211-.297.046-.334.143-.665.226-.994l.829-.041c.059.302.133.586.17.88.019.141-.037.297-.059.458h1.23zm-23.944-5.076c-.093-.155-.221-.298-.268-.463l-.543-2.176c-.083-.34-.152-.678-.225-1.017h-1.147c.005.055.023.068.042.072.406.124.433.147.308.555l-.774 2.418c-.078.238-.147.495-.432.596h.875c-.065-.106-.188-.22-.18-.311.047-.321.139-.637.222-.972l.829-.037.171.839c.042.183.073.362-.129.494h1.252v.001zm8.714-2.021h-1.087c.004-.509-.069-.994.078-1.531.262.037.534.01.729.119.142.083.187.34.28.527l.037-.76h-2.219c0 .014-.004.027-.004.041l.289.11c.024.137.07.293.07.444v2.331c-.005.298.042.632-.396.729a.74.74 0 0 0 .248.046l1.63-.005c.148-.004.359-.031.429-.127.133-.188.147-.435.11-.673-.041.034-.071.081-.083.133-.106.426-.304.545-.852.513-.253-.013-.268-.041-.332-.541 0-.009-.004-.013-.004-.023v-1.1h.576c.184.005.386.037.502-.233h-.001zm41.334-.77c.019 0 .037-.005.06-.005v-.779h-2.142c.272.073.309.27.309.491v2.519c0 .276.023.569-.382.624.05.031.078.045.105.045l1.976-.004c.069 0 .175-.032.203-.078a1.01 1.01 0 0 0 .124-.72c-.036.023-.055.046-.059.072-.079.472-.212.583-.843.592-.24.004-.331-.087-.346-.334-.023-.357-.032-.715-.041-1.072 0-.083.018-.16.033-.28h.349c.166 0 .337.014.502-.015.078-.014.143-.105.217-.165a.27.27 0 0 1-.038-.041h-1.017v-1.46c.244-.094.516-.087.755.018.268.106.18.38.235.59v.001zm-48.537 4.21h-2.101c.078.11.234.228.239.348.018.976.014 1.947.004 2.923 0 .166-.073.293-.267.316-.038.005-.07.032-.148.069.087.023.129.046.171.046l1.838-.028c.364-.004.604-.435.414-.77-.014.032-.028.06-.037.087a.73.73 0 0 1-.967.531c-.073-.023-.17-.114-.175-.178-.036-.482-.05-.967-.073-1.466h.419c.129 0 .262.014.391-.014.097-.023.184-.096.277-.151-.015-.031-.024-.059-.038-.091h-.986v-1.54c.277.037.516.047.733.11.295.083.161.399.249.597a.54.54 0 0 1 .059-.014l-.004-.774h.001zm54.235-4.998c.344.073.354.329.354.586v2.378c0 .284.028.59-.405.673.074.027.091.041.114.041l1.976-.005c.074 0 .185-.041.217-.096a.98.98 0 0 0 .115-.709c-.044.065-.073.138-.087.215-.047.233-.176.389-.42.422-.129.018-.258.041-.387.041-.239 0-.327-.083-.345-.33-.014-.166-.032-.334-.037-.499v-.866c.245.013.433.041.617.031s.392.014.466-.242h-1.046v-1.539c.282.032.516.036.737.092.299.078.207.384.267.6l.059-.014.042-.775-2.237-.004zM65.55 57.812h-2.174c.3.064.342.288.342.513l-.015 2.584c-.004.261-.008.527-.409.531.078.051.129.078.179.078.62-.001 1.241-.011 1.861-.031a.48.48 0 0 0 .323-.156c.12-.155.133-.522.055-.642-.019.052-.036.093-.046.134-.114.435-.549.673-.972.513a.33.33 0 0 1-.175-.233 14 14 0 0 1-.05-.981c-.005-.142 0-.28 0-.426h.622c.194 0 .382-.01.465-.248H64.51v-1.543c.276.037.51.041.732.106.281.078.221.371.318.573-.009-.248-.009-.495-.009-.77zM83.996 42.67c-.673-.696-1.083-1.53-1.353-2.437-.272-.902-.397-1.828-.479-2.772-.59 1.017-.756 2.066-.296 3.166.406.98 1.041 1.74 2.128 2.043zM54.083 57.807c.308.183.336.197.258.559-.148.664-.323 1.319-.484 1.974-.009.037-.042.069-.097.147-.249-.87-.544-1.677-.645-2.524l.295-.151h-1.441c.267.078.336.288.4.508l.268.922.552 1.91c.06.207.172.367.425.417.031-.096.064-.17.087-.248l.861-2.658c.11-.329.148-.732.58-.87-.354.013-.708.013-1.059.013zm31.281-.009c.16.155.35.285.464.463.493.788.756 1.64.663 2.589-.027.301-.078.518-.409.572-.005 0 0 .028-.005.037h1.59c-.386-.174-.414-.193-.418-.431-.009-.371-.065-.756.009-1.113.165-.797.35-1.613 1.127-2.085-.377-.165-.672-.063-.814.317-.148.398-.263.811-.397 1.218-.023.074-.051.142-.073.215-.07-.072-.083-.138-.102-.202-.129-.435-.249-.879-.401-1.31-.036-.11-.179-.247-.285-.256-.318-.037-.65-.014-.949-.014h-.001zm-9.161-4.97c-.575-.329-1.565-.17-2.058.293-.396.367-.562.834-.589 1.352-.027.531.036 1.053.387 1.494.502.624 1.464.601 2.017.404.032-.014.083-.037.093-.065.105-.288.166-.581.105-.889-.059.11-.087.225-.12.34-.11.371-.359.573-.708.573-.37 0-.655-.23-.784-.688-.211-.743-.217-1.493.051-2.227.073-.175.183-.333.323-.463.221-.206.492-.192.755-.078a.55.55 0 0 1 .354.582c-.004.078.019.16.032.238.023 0 .052-.004.074-.004l.069-.862zm15.484 2.69c-.032-.01-.069-.015-.101-.024-.032.129-.06.257-.102.381-.092.293-.285.485-.599.531s-.557-.087-.718-.348c-.087-.143-.175-.302-.194-.459-.058-.467-.085-.936-.083-1.406.011-.375.116-.737.36-1.044.194-.243.492-.325.806-.221.304.102.424.276.437.618.005.074.023.147.032.215.023 0 .051-.004.073-.004l.06-.87c-.405-.193-.806-.175-1.192-.106-.788.142-1.29.683-1.419 1.512-.097.618-.059 1.227.346 1.74.401.504 1.45.706 2.035.408.046-.023.106-.064.115-.106.056-.269.098-.545.144-.819zm23.925 2.432c-.078-.05-.105-.078-.142-.087-.645-.178-1.599-.119-2.133.624-.382.531-.405 1.127-.336 1.732.134 1.163 1.507 1.819 2.501 1.187.051-.276.125-.564.083-.87-.078.137-.11.283-.161.421-.097.266-.286.44-.567.482-.294.045-.557-.047-.718-.308a1.96 1.96 0 0 1-.235-.564c-.117-.499-.131-1.016-.041-1.52.059-.34.147-.673.409-.926.222-.215.484-.248.765-.142.276.1.415.302.423.59.005.069.015.138.019.207.023 0 .046-.005.07-.005a23.18 23.18 0 0 0 .063-.82zm8.489-1.471c-.359-.165-.382-.192-.392-.568a23.8 23.8 0 0 1-.005-.802c0-.096.019-.193.033-.311.267 0 .511.004.755-.005.152-.005.299-.041.304-.243h-1.087c.023-.535-.06-1.049.079-1.613.258.032.511.028.731.106.272.091.175.408.245.624l.069-.014v-.834h-2.201c.368.06.34.348.344.596v2.424c-.004.249.015.523-.294.646l1.419-.005zm-.908 5.054c-.373-.152-.373-.152-.428-.537a1.63 1.63 0 0 1-.023-.252l-.005-2.406c0-.1.024-.206.042-.371.258.041.501.041.714.124.281.11.114.425.249.622l.041-.88h-2.795v.958c.096-.28.105-.568.257-.692.161-.127.456-.096.701-.133.032.114.059.174.059.229l-.019 2.745c0 .316-.119.508-.456.527-.004 0-.008.023-.017.055l1.68.008v.001zm-63.832-3.73l.055.87c.114-.215-.027-.522.25-.636.211-.088.464-.074.755-.111v.61c-.005.742.018 1.479-.015 2.222-.027.577-.031.586-.46.664-.009 0-.014.023-.032.06h1.695c.019-.023.031-.045.051-.069-.526.015-.465-.352-.507-.654-.005-.036-.005-.078-.005-.114v-2.382c0-.097.024-.188.038-.303.184 0 .346-.018.502.005.3.041.387.155.391.462 0 .083.014.161.019.243.018 0 .042-.005.059-.005l.042-.87-2.837.009zm65.039 3.656c.391.192.898.21 1.307.059.416-.151.673-.444.752-.88.078-.448-.083-.81-.456-1.076-.207-.146-.424-.274-.617-.435-.148-.119-.276-.262-.378-.422-.124-.21-.078-.435.083-.613.194-.215.447-.215.7-.134.226.074.359.225.364.472 0 .083.014.17.018.252.023 0 .046-.004.07-.004v-.77c-.199-.128-.471-.166-.844-.115-.446.059-.842.371-.925.779-.097.467-.046.902.378 1.214.239.179.496.334.718.531a1.35 1.35 0 0 1 .327.482c.082.21-.046.466-.23.573-.475.269-1.106-.078-1.129-.619l-.013-.297c-.023 0-.047 0-.07.004l-.055.999zm-5.968 0c.511.269 1.243.151 1.57-.06.553-.352.709-1.297.12-1.755-.181-.142-.383-.257-.557-.404-.181-.15-.365-.301-.508-.49-.152-.201-.106-.466.056-.655.152-.183.461-.238.723-.138.11.037.205.109.27.205s.096.211.089.326v.197h.079v-.806c-.276-.142-.572-.124-.857-.083-.424.06-.751.285-.884.706-.139.43-.111.851.258 1.177.234.207.502.372.741.578.143.124.281.265.364.431.133.265.028.577-.217.691-.129.061-.271.088-.413.077s-.279-.059-.397-.14c-.239-.151-.313-.38-.29-.651.005-.072-.01-.146-.014-.214-.028 0-.051 0-.078.004l-.055 1.004zm-18.681-5.841c-.031-.009-.064-.013-.097-.023-.018.05-.042.096-.05.146-.11.476-.258.605-.733.624-.299.013-.432-.068-.441-.363-.023-.861-.015-1.717-.015-2.579 0-.129-.004-.269.052-.38.045-.096.174-.151.266-.219H97.31c.281.05.354.228.354.471l-.004 2.607c0 .252-.036.495-.368.55.051.027.093.041.134.041l1.81.027c.11 0 .29-.072.323-.155.096-.234.133-.495.193-.747zm1.151-2.804c.304.073.35.293.35.549l-.004 2.447c-.004.28.023.601-.41.654.12.028.212.028.309.028l1.492.018c.184.005.401.06.502-.127.129-.238.184-.514.133-.793-.083.151-.119.312-.188.459-.106.228-.46.352-.783.307-.249-.036-.304-.22-.309-.416l.005-2.584c0-.114.004-.243.059-.334s.18-.133.295-.211l-1.451.005zm-2.979-2.392c-.244-1.443.23-2.744.792-4.026-.03-.018-.061-.035-.092-.051l-.705.66c-.028-.124-.083-.234-.065-.335.051-.284.092-.573.203-.834.11-.27.124-.495-.088-.724-.128.197-.318.376-.377.59-.317 1.137-.401 2.296-.189 3.465.074.448.18.893.521 1.255v-.001zm1.114-10.894c.539 0 1.033.051 1.511.302-.558.394-1.155.711-1.607 1.219.92-.487 1.878-.867 2.98-1.036-.125-.087-.18-.147-.25-.17l-.938-.289c-.093-.031-.18-.087-.268-.133.055-.087.092-.21.171-.261.538-.344 1.123-.559 1.768-.577.245-.01.489 0 .733 0-.591-.321-1.193-.459-1.843-.27-.663.188-1.253.526-1.823.907l-.433.307h-.001zM72.271 61.473c-.249-.11-.253-.325-.258-.535l-.004-2.447c0-.256-.06-.545.262-.677h-1.294c.083.105.216.206.249.334.051.22.051.454.046.683l-.031 1.989c-.005.28 0 .559-.355.659l1.386-.004zm45.351.042c-.074-.114-.212-.229-.212-.348-.024-.949-.014-1.901-.024-2.85 0-.21.065-.367.277-.458h-1.432c.382.174.396.187.396.586l-.005 2.401c0 .274-.004.559-.35.673l1.35-.004zm-45.171-5.123c-.222-.068-.263-.238-.263-.425l-.027-2.631c0-.155.046-.311.069-.444.106-.051.175-.087.245-.124-.005-.008-.005-.023-.01-.031h-1.399c0 .013-.004.031-.004.045.083.027.166.055.289.091.019.083.065.183.07.28l-.005 2.631c-.004.247-.023.513-.346.604l1.383.005v-.001zm8.842-33.783c.106-.366.171-.66.272-.948.217-.609.479-1.206.668-1.819.189-.601.377-1.21.312-1.86-.031-.312-.088-.618-.285-.875-.055.737-.253 1.425-.474 2.117a25.21 25.21 0 0 0-.576 2.089c-.093.407-.042.829.083 1.296h-.001zM50.514 39.596c.019.092.027.229.065.362.17.568.696.696 1.119.284.364-.357.483-1.031.271-1.494a.61.61 0 0 0-.958-.261c-.363.261-.464.646-.497 1.108zm76.143-.133c.009.055.018.179.046.298.069.28.226.49.515.559.291.063.511-.083.678-.298.322-.417.396-.889.217-1.384-.181-.486-.682-.586-1.055-.229-.286.265-.397.605-.401 1.053zm-76.512.174c0-.486-.188-.902-.506-1.123-.396-.269-.816-.133-.968.321-.137.422-.069.829.161 1.205.222.353.549.514.811.435.312-.095.498-.403.502-.838zm76.193-.138l-.055-.027c-.017-.417-.133-.797-.464-1.081s-.76-.207-.967.178c-.291.528-.033 1.402.501 1.686.253.134.516.114.682-.114.134-.189.208-.427.303-.642zm3.119 1.096c-.033-.248-.083-.518-.369-.642-.289-.119-.538-.004-.755.197a1.3 1.3 0 0 0-.419.963c-.004.284.087.554.378.677.281.124.524 0 .737-.187.289-.261.405-.601.428-1.008zm-76.134.201c-.004-.269-.069-.549-.364-.683-.289-.133-.542 0-.755.193-.299.265-.419.618-.414 1.008.005.27.102.522.373.632.277.111.526.01.737-.186.268-.253.401-.57.424-.963zm71.722.468c0-.528-.254-.963-.659-1.164-.382-.193-.769-.023-.838.394-.083.495.074.922.47 1.238.203.16.437.275.699.142.268-.128.342-.371.328-.609zm-76.134.133c0-.491-.212-.875-.581-1.104-.428-.261-.874-.055-.926.444-.046.439.106.815.433 1.108.217.193.475.312.76.183.276-.124.323-.384.312-.632h.001zm33.901-19.05c-.437-.009-.926.504-1.022 1.448-.065.642.544 1.663 1.129 1.851-.553-1.091-.792-2.171-.106-3.299zm3.367-3.267c.331-.16.447-.412.506-.691.125-.587.175-1.174.097-1.769-.064-.454-.207-.88-.57-1.191-.116-.096-.258-.161-.387-.238-.023.068-.014.091-.004.11.704 1.113.907 2.282.382 3.528-.032.06-.019.142-.023.252zm-1.456 2.616c-.935.514-1.345 2.923-.622 3.496-.148-1.218.225-2.346.622-3.496zm-4.035 27.901c-.332.137-.631 1.407-.465 1.836h.604l-.138-1.836zm8.225-31.952l1.106.5c.018-.023.031-.046.05-.068l-.299-.321c-.014-.138-.032-.265-.046-.389.05-.055.096-.101.156-.17l-.323-.609c-.014.005-.027.014-.042.019.037.161.07.321.097.454l-.782.375.083.211-.001-.001zm-3.007 3.039c-.047.76.672 1.722 1.358 1.622l-1.358-1.622zm-.691 3.98c.009 1.059.552 1.512 1.018 1.567l-1.018-1.566v-.001zm9.953 6.021l-.709-.363-.046.445.188.137-.115.472.681-.692z"/><path d="M111.247 36.257l-.157-1.036c-.396-2.323-1.221-4.499-2.339-6.57-.911-1.681-2.025-3.246-3.316-4.66-1.024-1.129-2.168-2.143-3.413-3.024a24.4 24.4 0 0 0-8.406-3.806l-1.083-.215c-.193-.036-.303-.133-.368-.325l-.387-1.025c-.12-.308-.013-.445.313-.395 2.277.349 4.496 1.004 6.595 1.947a23.3 23.3 0 0 1 5.228 3.169c1.345 1.091 2.505 2.351 3.574 3.708 1.21 1.52 2.254 3.163 3.117 4.901.806 1.654 1.446 3.363 1.764 5.187.074.412.037.783-.202 1.131l-.516.783c-.083.111-.212.188-.322.28-.028-.014-.055-.031-.083-.05zM91.609 83.436l-.23-1.92.635-.087 1.299-.155a2.64 2.64 0 0 1 .662.041c.443.083.687.343.746.756.055.388-.11.742-.498.916-.267.124-.562.197-.852.243l-1.391.174c-.11.023-.221.023-.373.031v.001zm-.295-2.484l-.226-1.87.7-.1 1.096-.119a1.81 1.81 0 0 1 .631.064c.346.096.557.339.599.705.046.394-.073.72-.428.911-.198.106-.424.189-.646.23l-1.414.183c-.087.004-.179-.005-.312-.005zm10.8-2.135l-.935-2.039c.027-.036.037-.063.056-.068l1.892-.815c.732-.253 1.34.146 1.451.889.074.476-.166.861-.544 1.081-.608.348-1.252.628-1.92.953zm-25.561-71.3l-.635-2.085c.036-.036.054-.068.082-.072l2.054-.574c.474-.11.926.151 1.123.563.221.463.143.967-.249 1.287-.189.155-.419.294-.65.376l-1.579.49-.147.015zm18.039-3.771l1.055.211c.387.087.788.146 1.152.293.732.293.931 1.077.456 1.672a1.08 1.08 0 0 1-.433.336 1.09 1.09 0 0 1-.543.081c-.705-.072-1.4-.229-2.136-.352l.451-2.241zm-7.397 1.75c0-1.15.729-2.076 1.782-2.258a2.2 2.2 0 0 1 1.592.325c.469.308.801.783.928 1.328.271 1.1-.208 2.213-1.156 2.685-1.4.692-3.101-.316-3.147-1.869v-.21zM74.37 9.506c.009 1.243-.977 2.126-2.142 2.154-1.239.031-2.335-1.123-2.335-2.415a2.2 2.2 0 0 1 2.179-2.157c1.248.009 2.303 1.119 2.298 2.418zm27.771-3.509l.162 3-2.326-.883 2.166-2.117h-.002zm-19.988.257l-.345-2.41 1.828-.187c.198-.013.414.041.599.124.778.343.898 1.456.194 1.937-.262.179-.59.285-.908.362-.369.091-.755.119-1.137.169-.065.01-.134.005-.231.005zm11.666 48.219l.184-1.15c.046-.215.161-.422.428-.445.286-.023.456.156.53.39.11.363.211.732.239 1.108.032.431-.004.866-.036 1.297-.014.174-.083.357-.166.518-.138.274-.46.325-.667.096-.128-.131-.221-.292-.272-.467l-.24-1.347zm27.104.518l-.161.984c-.051.217-.162.423-.433.44s-.419-.16-.516-.38c-.29-.645-.322-1.328-.271-2.016a3.91 3.91 0 0 1 .152-.779c.055-.197.188-.348.423-.363.23-.014.396.115.47.303a5.44 5.44 0 0 1 .257.893c.051.257.047.527.079.917zM99.88 59.983l-.722-.036.382-1.425h.069l.272 1.461zm10.524-.032l.382-1.424h.074l.267 1.456-.723-.031v-.001zm-31.585-6.519l.253 1.397h-.713l.377-1.402a.45.45 0 0 0 .083.005zm-.363 6.469l.382-1.421h.069l.262 1.421h-.713zM55.29 54.829h-.714l.383-1.429h.069l.262 1.429z"/></g><defs><clipPath id="A"><path fill="#fff" d="M0 0h177v87H0z"/></clipPath></defs></svg>