<svg xmlns="http://www.w3.org/2000/svg" width="177" height="87" fill="#000" xmlns:v="https://vecta.io/nano"><path d="M75.789 22.091l-.141-.406c-.127-.348-.235-.703-.323-1.063a.6.6 0 0 0-.104-.289c-.059-.086-.14-.155-.234-.2-.942-.476-1.684-1.268-2.095-2.237-.193-.383-.298-.803-.309-1.23v-.811a3.58 3.58 0 0 1 .746-2.251c.263-.424.608-.79 1.016-1.078a3.75 3.75 0 0 1 1.358-.6c.197-.224.534 0 .731-.209.722-.064 1.45.021 2.136.252.364.099.702.281.984.531l-.464-.126a3.12 3.12 0 0 0-.491-.112h-.956c-.522-.031-1.039.106-1.476.392-.439.232-.828.547-1.144.929s-.553.822-.697 1.295c-.094.374-.131.76-.112 1.146-.018.477.067.951.249 1.393a3.34 3.34 0 0 0 .806 1.166c.46.471 1.037.814 1.672.994 0 0 .083.069.126.069.253 0 .493.097.717.097.521.007 1.037-.093 1.518-.293a5.44 5.44 0 0 0 1.265-.741c.154-.112.252-.308.407-.448-.06.315-.219.603-.45.826a4.02 4.02 0 0 1-1.406 1.091c-.491.287-1.047.445-1.616.461a5.72 5.72 0 0 0-.76.112l.535 1.65.463 1.398.422 1.398a13.03 13.03 0 0 0 .38 1.258l.394 1.243.435 1.398c.112.476.309.937.436 1.398l.758 2.517.367 1.203.548 1.846.66 2.125a2.46 2.46 0 0 0 .621.95c.278.264.615.461.983.573.81.303 1.682.409 2.542.308a8.74 8.74 0 0 0 1.701-.308c.662-.207 1.299-.489 1.897-.839a7.44 7.44 0 0 0 2.151-1.734c.447-.497.782-1.083.983-1.719.098.58.029 1.176-.197 1.719-.384.937-.998 1.763-1.785 2.405a10.36 10.36 0 0 1-1.672 1.203h2.332c.604 0 1.181-.097 1.771-.14a9.82 9.82 0 0 0 1.546-.196l1.561-.321 1.406-.392 1.32-.392c.422-.14.815-.336 1.224-.49s.731-.336 1.096-.503.703-.349 1.04-.545c.632-.386 1.241-.806 1.826-1.258h.085c.084 0 0 .14 0 .168-.43.457-.9.873-1.406 1.244-.281.182-.478.476-.772.643s-.942.686-1.406.979l-2.249 1.174c-.337.154-.688.252-1.04.378l-1.237.461-1.406.377-.898.225c-.296.069-.604.097-.9.195s-.464 0-.717.112-.843 0-1.251.141c-.822.088-1.648.12-2.474.097-.169 0-.351.14-.506.097-.763-.109-1.535-.142-2.304-.097-.225 0-.422-.153-.661-.112-.114.03-.233.036-.35.016a.83.83 0 0 1-.325-.128 3.31 3.31 0 0 1-1.04-.112 5.25 5.25 0 0 1-1.321-.252c-.197 0-.379 0-.562-.084l-2.36-.74-1.322-.531c-.351-.182-.758-.294-1.11-.477l-1.56-.81a1 1 0 0 1 .154.196l.464.671 1.208 1.3a25.38 25.38 0 0 0 1.954 1.719 26.91 26.91 0 0 0 2.221 1.51c.382.247.781.466 1.194.658a14.79 14.79 0 0 0 2.264.867l.927.293c.296.098.62.112.929.238.288.078.586.12.885.125l.548.112c.169 0 .365 0 .521.084.024.011.05.017.077.017s.053-.006.077-.017c.647 0 1.28.14 1.912.125h1.981c.24 0 .45-.168.717-.125a1.71 1.71 0 0 0 .703 0c.548-.125 1.124-.097 1.659-.21a24.73 24.73 0 0 0 2.811-.642.41.41 0 0 1 .364.069l-2.024.783c-.342.013-.677.098-.983.252a3.2 3.2 0 0 0-.97.28c-.506 0-.941.28-1.406.238-.154 0-.295.083-.45.097s-.323 0-.45.112l-1.489.097-1.153.112h-1.153c-.268 0-.549-.083-.83-.097-.271.028-.543.028-.815 0-.24-.07-.491 0-.716-.098a5.96 5.96 0 0 0-.661-.112c-.474-.089-.943-.207-1.405-.349l-1.672-.518c-.016.074-.016.151 0 .225.152.362.356.701.604 1.006a5.24 5.24 0 0 0 1.87 1.301l1.645.518c.505.153 1.054.139 1.56.335.829-.069 1.63.182 2.459.098.267 0 .52-.084.787-.098a5.36 5.36 0 0 0 .815 0c.478-.097.969-.097 1.406-.224.592-.092 1.175-.232 1.743-.419a.45.45 0 0 1 .365 0l-1.054.476c-.727.366-1.504.624-2.305.769l-1.601.238a13.62 13.62 0 0 1-1.827.069h-1.855c-.211 0-.38-.154-.604-.126s-.408-.097-.618-.083a2.21 2.21 0 0 1-.604-.126l-.562-.098c-.201-.036-.398-.088-.591-.153a12.33 12.33 0 0 1-1.406-.699 9.19 9.19 0 0 1-1.222-1.119c-.517-.589-.858-1.311-.984-2.083 0-.238-.099-.476-.141-.727-.424-.221-.837-.464-1.237-.727-.364-.28-.787-.447-1.124-.756s-.731-.502-1.083-.782l-.927-.811-1.237-1.216c-.549-.535-1.052-1.115-1.503-1.734l-1.195-1.776c-.379-.615-.829-1.58-1.237-2.376-.29-.657-.516-1.341-.675-2.041-.112-.448-.422-.839-.379-1.315-.225-.167 0-.418-.154-.601s0-.42 0-.615 0-.392-.099-.559c-.027-.047-.041-.1-.041-.153s.014-.107.041-.153c.141-.168.084-.35.084-.518.037-.652.16-1.296.365-1.916a9.74 9.74 0 0 1 .956-1.999 11.67 11.67 0 0 1 .829-1.076 7.61 7.61 0 0 1 .618-.713 19.07 19.07 0 0 1 2.712-2.154c.129-.094.265-.178.408-.251zm5.27 17.252s-.084-.069-.098-.112c-.071-.461-.296-.895-.395-1.398s-.267-.908-.406-1.398l-.395-1.243a4.39 4.39 0 0 1-.351-1.274 11.34 11.34 0 0 1-.633-1.914l-.59-1.985-.731-2.364-.548-1.775a5.57 5.57 0 0 1-.337-1.16l-.198-.197-1.152.896c-.632.545-1.19 1.17-1.659 1.859a9.37 9.37 0 0 0-.703 1.398c-.19.49-.335.994-.435 1.51-.039.691-.001 1.385.112 2.068.138.414.298.819.478 1.217a4.86 4.86 0 0 0 .59 1.007 8.2 8.2 0 0 0 1.194 1.398 7.76 7.76 0 0 0 1.04.866c.548.337 1.025.77 1.588 1.063l2.671 1.315c.312.098.632.173.956.223zM51.081 18.889h3.303c.422.642.984 1.201 1.406 1.846s.76.88 1.111 1.398l1.054 1.398c.337.517.759.866 1.11 1.398s.745.866 1.055 1.397c.154.238.364.433.534.657l1.7 2.125c.352.462.773.867 1.111 1.398s.731.88 1.054 1.398.802.908 1.153 1.398l.9 1.201a7.88 7.88 0 0 0 .548.644l1.687 2.125 1.153 1.398c.351.502.703.852 1.026 1.313s.745.895 1.111 1.398l1.068 1.398c-.469.043-.938.043-1.406 0h-1.561l-4.005-5.006H39.275l-4.019 4.601h-2.249c-.243.019-.488.019-.731 0 0-.084.084-.154.127-.21a20 20 0 0 0 1.588-1.999 8.09 8.09 0 0 1 .548-.658l1.237-1.551c.394-.531.76-.867 1.111-1.328s.745-.88 1.054-1.398c.186-.255.388-.497.604-.727l1.139-1.398a5.76 5.76 0 0 1 .534-.658l1.237-1.552c.393-.531.759-.867 1.11-1.328l1.054-1.398c.323-.518.717-.825 1.027-1.273l1.068-1.398c.337-.517.759-.88 1.096-1.398s.759-.866 1.068-1.398c.185-.175.382-.338.589-.489l1.701-2.139c.21-.28.463-.531.688-.797s.127-.265.225-.39zm1.603 1.719L40.948 35.274h23.555L52.684 20.609h.001zm70.019-1.706h3.19a7.76 7.76 0 0 1 .956 1.147c.162.231.34.451.534.657l1.237 1.553c.392.531.772.867 1.11 1.398s.731.88 1.068 1.398.703.824 1.025 1.258l1.055 1.398c.337.517.759.88 1.11 1.398s.744.866 1.054 1.398a4.67 4.67 0 0 0 .534.642l1.251 1.552 1.097 1.398c.337.518.744.88 1.068 1.398a5.61 5.61 0 0 0 .533.657l1.237 1.553c.393.545.646.783.956 1.175l1.56 1.971 1.11 1.398c.127.14.225.308.366.489h-2.811l-4.062-5.005H110.87l-4.006 4.977h-2.994l1.251-1.607 1.11-1.398 1.055-1.398c.323-.518.758-.867 1.11-1.398s.969-1.132 1.405-1.761l.576-.699 1.546-1.86 1.265-1.594 1.406-1.887c.422-.615.773-.88 1.124-1.398l1.054-1.398c.337-.517.759-.88 1.111-1.398s.745-.866 1.054-1.398c.186-.254.387-.497.604-.726.235-.192.438-.418.605-.671.112-.266.393-.378.491-.658s.309-.377.464-.573c.45-.686 1.04-1.328 1.603-1.986zm1.657 1.734l-.421.419-1.405 1.901c-.436.629-.858 1.048-1.28 1.594l-1.531 1.859c-.204.218-.397.446-.577.685a7.9 7.9 0 0 1-.66.88c-.253.28-.463.602-.703.896s-.787.867-1.11 1.398-.689.867-1.026 1.313l-1.265 1.595-1.616 1.943c-.038.057-.071.118-.098.181h23.457a9.75 9.75 0 0 1-.802-.922c-.141-.21-.338-.364-.464-.574-.309-.49-.717-.895-1.053-1.398s-.774-.867-1.111-1.398-.759-1.007-1.166-1.468c-.184-.189-.349-.395-.493-.615-.309-.49-.716-.895-1.068-1.398s-.759-.88-1.096-1.398-.815-1.048-1.251-1.552c-.197-.198-.376-.413-.534-.643-.309-.49-.716-.895-1.054-1.398s-.745-.895-1.111-1.398c-.224 0-.393-.252-.562-.503z"/><path d="M104.896 25.489c-1.171-1.004-2.482-1.834-3.894-2.462-.926-.433-1.925-.699-2.811-1.076-.548 0-1.054-.28-1.601-.364l-1.743-.321c-.275-.006-.549-.044-.815-.113-.295-.139-.576 0-.843-.097a16.25 16.25 0 0 0-1.644-.112 10.56 10.56 0 0 0-1.756-.097c-.774 0-1.533.181-2.305.111-.323.154-.675 0-.984.126s-.647 0-.941.112c-.245.056-.495.084-.745.084l-1.237-1.916c.189-.093.395-.145.604-.153a5.06 5.06 0 0 0 .661-.097c.225 0 .479.069.675-.112s.071 0 .099 0c1.402-.114 2.81-.142 4.217-.084l1.405.083a4.14 4.14 0 0 1 .562.113c.197 0 .407 0 .618.083s.407 0 .59 0a6.66 6.66 0 0 0 1.293.294 4.91 4.91 0 0 0 1.265.238 13.46 13.46 0 0 0 1.489.489l1.406.574a30.61 30.61 0 0 1 2.923 1.496c1.254.778 2.398 1.718 3.402 2.796a3.32 3.32 0 0 1 .112.405v.001zm-64.004 28.73h.997a.27.27 0 0 1 .181.036c.054.033.095.085.114.145.21.714.52 1.398.773 2.084l.478 1.202c.169.392.422.88.562 1.398s.379.867.491 1.398a7.64 7.64 0 0 0 .521 1.105l.997-2.419.942-2.432.956-2.377h1.264v8.388h-.843v-7.424l-.773 1.874-.521 1.3-1.011 2.573c-.155.447-.366.867-.549 1.301-.037.08-.084.155-.141.223h-.548c-.063.009-.127-.007-.179-.043a.25.25 0 0 1-.102-.152c-.211-.727-.521-1.398-.787-2.112l-.787-1.916-.731-1.873c-.07-.209-.182-.433-.267-.642l-.281-.63v7.354h-.745l-.014-8.36zm97.258 2.041c-.361.02-.723.02-1.083 0a3.16 3.16 0 0 0-1.11-.993c-.484-.31-1.056-.457-1.631-.42-.767-.052-1.525.188-2.122.671-.435.363-.8.797-1.082 1.286-.114.265-.198.542-.253.825 0 .196.099.461-.113.657.183.308 0 .671.141.979.073.257.162.509.267.755a3.77 3.77 0 0 0 1.406 1.468c.386.253.832.402 1.293.434.169 0 .351.125.506.083a4.52 4.52 0 0 0 1.517-.404c.476-.258.885-.621 1.195-1.064.169-.252.267-.518.422-.755.048-.15.048-.311 0-.461h-4.217v-.755h5.327c-.07.865-.349 1.7-.815 2.433-.348.46-.776.853-1.265 1.16a4.39 4.39 0 0 1-1.405.559c-.327.076-.663.104-.998.084-.876.018-1.736-.236-2.46-.727-.825-.58-1.39-1.458-1.574-2.446-.21-.28 0-.658-.21-.951v-.321-.154a8.85 8.85 0 0 1 .154-.797c.071-.265.225-.573.294-.866.058-.213.163-.409.31-.574a2.84 2.84 0 0 1 .59-.671 4.4 4.4 0 0 1 1.237-.839l1.083-.308a3.73 3.73 0 0 1 .885-.083c.683.027 1.351.209 1.953.53a5.21 5.21 0 0 1 1.406 1.398c.112.095.229.184.352.266zM36.634 74.659c-.909.017-1.795-.285-2.502-.853-.769-.561-1.324-1.364-1.574-2.279a2.56 2.56 0 0 1-.112-.657.92.92 0 0 0-.083-.462.67.67 0 0 1 0-.601c.125-.197 0-.462.125-.658a2.31 2.31 0 0 1 .45-1.119 4.56 4.56 0 0 1 1.982-1.761 2.91 2.91 0 0 1 1.222-.336c.169 0 .352-.112.506-.084a10.95 10.95 0 0 1 1.336.196 3.52 3.52 0 0 1 1.18.559 4.69 4.69 0 0 1 1.505 1.803 2.64 2.64 0 0 1 .323 1.132c.021.134.054.264.099.391a1.77 1.77 0 0 1 0 .378c-.046 1.158-.51 2.26-1.308 3.104-.51.492-1.125.865-1.798 1.091-.445.093-.895.145-1.349.153zm.169-7.983c-.145-.014-.291-.014-.436 0a3.64 3.64 0 0 0-1.04.252 3.51 3.51 0 0 0-1.406 1.398 2.79 2.79 0 0 0-.548 1.398v.238c0 .069-.084.363 0 .461s0 .308.084.461c-.007.107-.007.214 0 .321.281.917.885 1.701 1.7 2.21a1.97 1.97 0 0 0 1.111.335 1.96 1.96 0 0 0 1.489 0 3.38 3.38 0 0 0 1.411-.788c.399-.373.701-.837.88-1.351a3.12 3.12 0 0 0-.014-2.545c-.203-.633-.589-1.192-1.11-1.607-.587-.505-1.346-.77-2.122-.741v-.041-.001zm39.127 7.983c-.908.063-1.806-.216-2.516-.783a3.81 3.81 0 0 1-1.052-1.077 3.79 3.79 0 0 1-.551-1.398.92.92 0 0 1-.098-.713c0-.224-.253-.377 0-.642s0-.42 0-.63c.119-.546.333-1.067.633-1.538a4.33 4.33 0 0 1 1.096-1.16 2.93 2.93 0 0 1 1.406-.643c.16-.051.325-.088.491-.112a2.15 2.15 0 0 0 .45-.098c.182 0 .394-.097.576 0 .064.023.134.023.198 0 .776.06 1.516.352 2.122.839a5.53 5.53 0 0 1 .969 1.007c.244.324.416.696.506 1.091a3.44 3.44 0 0 1 .169 1.663 5.65 5.65 0 0 1-.268 1.398 5.06 5.06 0 0 1-1.039 1.581 3.9 3.9 0 0 1-1.743 1.063 3.52 3.52 0 0 1-1.349.153zm.141-7.941c-.316.004-.631.037-.941.097-.409.113-.795.298-1.139.546a2.93 2.93 0 0 0-.927 1.02c-.309.435-.48.951-.492 1.481v.491c0 .027.083.307.112.461a2.66 2.66 0 0 0 .126.755c.343.879 1.005 1.597 1.855 2.013.296.125.632.14.927.251.513.139 1.057.104 1.547-.097a3.55 3.55 0 0 0 1.981-1.678 3.86 3.86 0 0 0 .435-2.265c-.013-.237-.069-.469-.168-.685-.234-.643-.643-1.21-1.181-1.636a3.3 3.3 0 0 0-2.136-.754zm36.528-8.263a3.79 3.79 0 0 1-.534 2.223 4.31 4.31 0 0 1-.969 1.16c-.308.282-.659.514-1.041.686a4.21 4.21 0 0 1-.871.266c-.359.083-.729.111-1.096.083-1.008-.027-1.97-.425-2.699-1.119a4.59 4.59 0 0 1-1.11-1.663c-.084-.165-.151-.339-.198-.518a5.56 5.56 0 0 1-.111-1.523l.238-1.105a2.32 2.32 0 0 1 .422-.797 4.55 4.55 0 0 1 1.012-1.119 5.34 5.34 0 0 1 1.406-.768s.084-.083.127-.069c.435 0 .842-.182 1.264-.126a4.23 4.23 0 0 1 2.657 1.133 3.76 3.76 0 0 0 .337.335 4.19 4.19 0 0 1 1.082 1.999 3.26 3.26 0 0 1 .084.923zm-7.758-.308a4.52 4.52 0 0 0 .534 2.153 3.07 3.07 0 0 0 .9 1.035 1.59 1.59 0 0 0 1.095.489c.184.182.408.084.619.112s.324.14.436.098a3.36 3.36 0 0 1 .618-.098 2.33 2.33 0 0 0 .816-.28c.456-.278.864-.627 1.208-1.035a5.13 5.13 0 0 0 .773-2.292v-.154c0-.013-.126-.293-.126-.405.003-.259-.06-.514-.183-.742a3.92 3.92 0 0 0-1.223-1.58c-.499-.412-1.138-.617-1.785-.574h-.703a.99.99 0 0 0-.351 0 3.68 3.68 0 0 0-1.784 1.23 3.8 3.8 0 0 0-.844 2.041zm-21.967-3.928h.296c.703 0 .787 0 1.095.601s.633 1.049.956 1.566l.97 1.496 1.265 2.028.9 1.398v-7.06h.871v8.389h-1.027l-4.596-7.355h-.098c0 .587.098 1.175.112 1.775v1.846 3.635h-.76l.015-8.319zm38.679 20.328v-8.472h2.375c.407-.004.813.043 1.209.14.297.066.573.205.801.405.451.308.772.772.899 1.301a2.52 2.52 0 0 1 .169.964c-.052.423-.176.834-.366 1.216-.182.323-.437.601-.744.811-.137.109-.295.19-.464.238a1.33 1.33 0 0 1-.52.041l1.026 1.692 1.012 1.635a6.13 6.13 0 0 1-.872 0 3.83 3.83 0 0 1-.463-.601c-.577-1.091-1.406-2.084-1.912-3.174 0-.112-.14-.181-.267-.335h.927a1.82 1.82 0 0 0 .888-.21c.274-.144.505-.356.673-.614.112-.14.084-.377.141-.545a.6.6 0 0 0 .063-.266.6.6 0 0 0-.063-.266v-.418c-.106-.303-.292-.571-.54-.776s-.547-.338-.866-.384h-2.221v6.989c-.007.126-.007.252 0 .378.002.036-.003.072-.015.106s-.032.065-.057.091a.26.26 0 0 1-.194.082l-.619-.028zM60.287 59.391l1.968 3.174h-.984l-2.488-4.027h.858c.309.003.614-.07.888-.211a1.89 1.89 0 0 0 .686-.6 2.54 2.54 0 0 0 .141-1.3c-.122-.41-.35-.782-.661-1.077a1.14 1.14 0 0 0-.604-.28 8.04 8.04 0 0 0-1.153-.112H57.73v7.578h-.83v-8.389h2.993a2.82 2.82 0 0 1 1.645.643c.329.414.573.891.716 1.398.066.213.104.435.112.658a2.52 2.52 0 0 1-.57 1.652c-.381.466-.917.782-1.51.891zm42.782-3.006h-1.055a1.38 1.38 0 0 0-.253-.377c-.468-.485-1.054-.841-1.701-1.036-.5-.124-1.02-.152-1.531-.083a2.41 2.41 0 0 0-1.406.587c-.333.295-.627.634-.871 1.007-.302.437-.472.951-.492 1.481a.61.61 0 0 1-.071.406c0 .084.071.252.071.362a2.9 2.9 0 0 0 .492 1.581 3.17 3.17 0 0 0 1.194 1.203c.396.248.843.396 1.308.434.106.032.21.075.309.125.036.014.076.014.112 0 .253-.168.548-.083.815-.14.742-.18 1.403-.598 1.883-1.188a.74.74 0 0 0 0-.21h1.012c-.384.824-1.052 1.483-1.883 1.86-.747.355-1.58.495-2.404.405a5.45 5.45 0 0 1-1.321-.362c-.343-.152-.66-.355-.941-.602-.632-.502-1.093-1.185-1.321-1.957a2.56 2.56 0 0 1-.169-.854.85.85 0 0 0-.083-.405c-.042-.189-.042-.384 0-.573 0-.098.083-.197 0-.294.021-.184.059-.367.111-.545 0-.197.127-.321.155-.49a3.48 3.48 0 0 1 .998-1.481c.398-.404.877-.719 1.406-.924.21-.097.463 0 .618-.209.464-.076.935-.109 1.406-.098a5.05 5.05 0 0 1 1.406.321c.604.269 1.145.66 1.588 1.148l.618.908h.001zm-28.952-.013h-.984a2.06 2.06 0 0 1-.211-.238 3.12 3.12 0 0 0-1.742-1.16 3.63 3.63 0 0 0-1.546-.071 2.33 2.33 0 0 0-1.28.546c-.451.329-.829.748-1.11 1.23-.218.37-.338.787-.352 1.216v.923a2.31 2.31 0 0 0 .337 1.216 3.15 3.15 0 0 0 1.322 1.482 2.82 2.82 0 0 0 1.292.434c.155 0 .296.083.45.083s.253 0 .394-.083c.14.008.281.008.422 0a3.54 3.54 0 0 0 1.897-1.273v-.153h1.041a2.57 2.57 0 0 1-.549.839 4.4 4.4 0 0 1-1.406 1.035c-.748.338-1.573.468-2.389.377-.325-.03-.645-.096-.956-.196-.22-.083-.431-.186-.632-.308-.434-.239-.824-.551-1.153-.922a3.7 3.7 0 0 1-.914-1.791c0-.181-.098-.362-.111-.559s-.099-.362-.084-.545c.06-.346.094-.697.098-1.048v-.07a3.84 3.84 0 0 1 .59-1.398c.053-.088.12-.168.197-.238l.491-.502c.344-.397.785-.7 1.28-.88a2 2 0 0 1 .618-.21c.432-.1.877-.138 1.32-.112.481.05.953.157 1.406.321.614.257 1.159.654 1.589 1.16.323.294.632.49.675.896zm36.19 16.008h.816c0 .112 0 .252-.071.321-.467.741-1.155 1.318-1.968 1.65-.154.077-.314.143-.478.196a4 4 0 0 1-.716.112h-.815a3.89 3.89 0 0 1-2.559-1.077 3.82 3.82 0 0 1-.969-1.285c-.223-.436-.361-.911-.408-1.398 0-.168-.098-.336-.098-.503a2.8 2.8 0 0 1 .083-.825c.049-.284.12-.564.212-.839.099-.251.225-.489.337-.74.311-.477.696-.901 1.139-1.258.23-.229.509-.406.815-.518.376-.172.781-.275 1.195-.306.168 0 .337-.098.492-.084a4.91 4.91 0 0 1 2.81.951c.458.419.869.889 1.224 1.398h-1.041l-.702-.503c-.37-.41-.863-.69-1.406-.797-.681-.164-1.396-.12-2.052.126-.257.09-.496.228-.703.405a4.06 4.06 0 0 0-1.04 1.147c-.201.352-.325.744-.364 1.146a.73.73 0 0 1-.099.405v.462c0 .153.083.168 0 .238a2.39 2.39 0 0 0 .463 1.398 2.99 2.99 0 0 0 1.406 1.397 2.49 2.49 0 0 0 .972.329c.344.041.692.01 1.024-.09.735-.061 1.416-.408 1.897-.965l.604-.489zm-16.641 2.153h-.731V70.66h-4.061v3.257a3.78 3.78 0 0 1 0 .378.25.25 0 0 1-.021.103c-.014.033-.036.062-.062.085s-.058.042-.092.053-.07.014-.106.011h-.562v-8.459h.829v3.775h4.047v-3.789h.76v8.459h-.001zm-34.7-8.459h1.012l3.303 8.388h-.871c-.435-.839-.632-1.818-1.096-2.685h-3.71c-.408.867-.647 1.832-1.096 2.685h-.787c.227-.727.493-1.442.802-2.139l.814-2.097.802-2.069.829-2.083zm2.066 4.977c-.394-1.272-.984-2.446-1.406-3.69-.042-.114-.099-.222-.169-.321h-.126l-1.406 3.801v.169l3.106.041zm53.337.811c-.464.853-.689 1.818-1.096 2.698h-.774a.63.63 0 0 1 0-.28l1.406-3.453a8.87 8.87 0 0 1 .618-1.761l.661-1.678a10.68 10.68 0 0 0 .478-1.398h1.054l3.261 8.388c-.276.021-.554.021-.83 0l-.435-1.035-.549-1.51c0-.14-.182-.196-.351-.181h-3.443v.209zm1.855-4.893h-.098a1.03 1.03 0 0 1 0 .293c-.23.499-.427 1.013-.591 1.538-.238.545-.421 1.104-.618 1.65 0 .181-.239.377-.154.615h3.077l-1.616-4.096zm-82.935-4.39h-.858l1.589-4.195 1.645-4.195h1.039l3.176 8.236v.112h-.829l-.998-2.573h-3.752l-1.012 2.614zm2.811-7.508l-.745 2.056a21.27 21.27 0 0 0-.744 2.152h3.119c-.379-1.3-.997-2.474-1.406-3.746-.047-.156-.113-.306-.196-.447l-.028-.015zm39.268 7.508h-.843c.225-.723.493-1.433.802-2.125l.787-2.069.843-2.096.801-2.056h1.012l3.246 8.389h-.885l-.675-1.719-.225-.672c-.084-.209-.169-.196-.337-.196h-3.542l-.984 2.545zm2.811-7.564l-1.574 4.195h1.602c.524.028 1.05.028 1.574 0l-1.561-4.124-.042-.07zm61.277 17.029h.66a.23.23 0 0 1 .197.067c.025.026.042.058.052.092s.011.071.004.106a1.74 1.74 0 0 0 .324.895c.098.173.242.316.415.414a1.11 1.11 0 0 0 .569.145c.381.075.778.005 1.11-.196.175-.113.322-.263.432-.439a1.4 1.4 0 0 0 .201-.581c0-.197.238-.406 0-.615 0-.643-.408-.937-.9-1.202-.265-.148-.543-.275-.829-.378-.321-.101-.632-.233-.928-.391a1.9 1.9 0 0 1-.624-.523c-.167-.217-.285-.468-.345-.735a2.63 2.63 0 0 1 .182-1.65 1.6 1.6 0 0 1 .689-.769 1.57 1.57 0 0 1 1.125-.336h.547c.192-.01.383.022.561.095a1.3 1.3 0 0 1 .466.325 1.19 1.19 0 0 0 .225.238c.225.125.253.363.351.559a1.08 1.08 0 0 1 .14.601 1.88 1.88 0 0 0 0 .335h-.801a2.14 2.14 0 0 0-.281-.839 1.17 1.17 0 0 0-.576-.461c-.211-.081-.438-.11-.662-.085a1.41 1.41 0 0 0-.626.227 1.4 1.4 0 0 0-.451.489c-.108.197-.168.416-.173.641-.025.265.038.53.18.755a1.21 1.21 0 0 0 .607.489 7.02 7.02 0 0 0 .914.322 4.82 4.82 0 0 1 1.406.671 1.4 1.4 0 0 1 .463.671c.104.218.156.457.155.699.012.404-.027.808-.112 1.201a2.62 2.62 0 0 1-.886 1.398c-.281.201-.602.34-.942.408a2.44 2.44 0 0 1-1.026-.015c-.266-.033-.52-.124-.746-.267a1.81 1.81 0 0 1-.561-.558 2.41 2.41 0 0 1-.45-1.188 2.7 2.7 0 0 0-.056-.615zm-43.02-5.97h4.342v.852h-3.584v2.936h3.585v.769h-3.262c-.239 0-.323.084-.337.321v2.713h3.584v.867h-4.328v-8.459h.001zm40.87 3.774v.783h-3.275c-.239 0-.323.084-.323.321v2.672h3.556v.838h-4.343v-8.389h4.357v.853h-3.585v2.908l3.613.013zm3.513-14.889v3.048h3.472v.769h-3.457v3.02h3.457v.742h-4.343v-8.389h4.357v.714l-3.486.097zm-12.241-.713v.727h-3.486v3.048h3.486v.726h-3.499v3.035h3.499v.741h-4.371v-8.389l4.371.113zm-76.864 3.789h3.471v.741h-3.471v3.035h3.443a4.74 4.74 0 0 1 0 .768H50.8V54.19h4.329v.742h-3.415v3.104zm13.998 16.498h-.773v-8.389h2.572c.321-.003.639.061.934.186s.561.309.781.541a2.36 2.36 0 0 1 .618 1.538 2.79 2.79 0 0 1-.309 1.398 2.1 2.1 0 0 1-.62.735 2.11 2.11 0 0 1-.884.384c-.382.093-.775.13-1.166.112h-1.154v3.495zm0-7.592v3.145h1.814c.44-.068.845-.279 1.152-.601.211-.182.155-.421.253-.615a1.39 1.39 0 0 0 .061-.587c-.022-.198-.085-.389-.187-.56a1.4 1.4 0 0 0-.534-.572 1.41 1.41 0 0 0-.759-.198c-.59-.056-1.194-.013-1.799-.013zm-18.285 2.907v.77h-3.275v3.481c0 .433 0 .447-.463.447h-.394v-8.389h4.118v.826h-3.246v2.922l3.26-.056zm38.594-3.76v.839h-1.616v7.605h-.802v-7.578h-1.715v-.867h4.133v.001zm33.885-4.265h2.952v.727h-3.781v-8.389h.829v7.662zm-5.115 0h3.036v.727h-3.782v-8.389h.746v7.662zm15.403 12.709h-.731v-8.389a6.15 6.15 0 0 1 .731 0v8.389zm-65.62-11.954h-.647V54.19h.716l-.07 8.389z"/></svg>