<svg xmlns="http://www.w3.org/2000/svg" width="177" height="64" fill="none" xmlns:v="https://vecta.io/nano"><path d="M23.982 12.025v5.246c-.013 3.796-2.936 6.72-6.733 6.72H6.758C2.922 23.977.011 21.067 0 17.221V6.804C.011 2.932 2.922.022 6.794.009h10.367c3.922.013 6.808 2.898 6.821 6.832v5.184zm-11.978-6.67c-.875-.004-1.743.165-2.553.498a6.62 6.62 0 0 0-2.164 1.442c-.619.619-1.11 1.355-1.443 2.165a6.63 6.63 0 0 0-.498 2.553 6.61 6.61 0 0 0 6.62 6.633 6.6 6.6 0 0 0 2.556-.486 6.63 6.63 0 0 0 2.171-1.434 6.6 6.6 0 0 0 1.45-2.16 6.61 6.61 0 0 0 .505-2.552 6.62 6.62 0 0 0-6.645-6.658zm9.318-1.349c0-.701-.6-1.312-1.299-1.337-.725-.025-1.361.613-1.374 1.337 0 .698.599 1.311 1.299 1.336.736.025 1.374-.6 1.374-1.337v.001zm-5.334 8.02a3.98 3.98 0 0 1-1.183 2.825 3.99 3.99 0 0 1-1.305.858 3.98 3.98 0 0 1-1.535.289 3.99 3.99 0 0 1-3.959-3.984c-.002-.526.1-1.047.3-1.534a3.99 3.99 0 0 1 .866-1.302c.372-.373.813-.668 1.299-.87s1.007-.305 1.533-.305a3.98 3.98 0 0 1 1.533.308 3.99 3.99 0 0 1 1.297.874 4 4 0 0 1 .861 1.305 3.98 3.98 0 0 1 .293 1.536z" fill="#000"/><g clip-path="url(#A)"><path d="M122 2.693c-1.048.465-2.16.77-3.299.905 1.2-.718 2.098-1.848 2.526-3.179a11.52 11.52 0 0 1-3.648 1.395c-.538-.574-1.187-1.031-1.908-1.343A5.74 5.74 0 0 0 113.385 0c-3.709 0-6.434 3.46-5.596 7.053-2.284-.115-4.518-.708-6.558-1.743s-3.84-2.486-5.282-4.261a5.75 5.75 0 0 0 1.777 7.671 5.72 5.72 0 0 1-2.6-.72c-.065 2.664 1.843 5.155 4.607 5.709a5.76 5.76 0 0 1-2.595.097 5.75 5.75 0 0 0 5.366 3.989A11.55 11.55 0 0 1 94 20.173a16.26 16.26 0 0 0 8.805 2.581c10.667 0 16.694-9.008 16.328-17.087A11.68 11.68 0 0 0 122 2.693z" fill="#000"/></g><path d="M61.588 23.901V12.946h2.481l.56-4.282h-3.041v-2.59c0-1.294.28-2.091 1.96-2.091h1.174V.2c-.373-.102-.708-.2-2.108-.2-3.08 0-5.133 1.992-5.133 5.577v3.186H55v4.282h2.481V24l4.107-.099zM5.707 51.265l4.687 2.278c.902.44.762 1.758-.211 2.002l-5.058 1.256c-.149.037-.304.042-.455.014a1.08 1.08 0 0 1-.42-.174 1.06 1.06 0 0 1-.309-.331 1.05 1.05 0 0 1-.142-.428 9.21 9.21 0 0 1 .422-4c.208-.615.909-.901 1.488-.619h-.001zM7.778 62.48a9.4 9.4 0 0 0 3.736 1.505 1.09 1.09 0 0 0 .455-.021 1.08 1.08 0 0 0 .405-.206c.119-.096.215-.217.283-.353a1.05 1.05 0 0 0 .11-.437l.183-5.196a1.08 1.08 0 0 0-1.872-.754l-3.491 3.864a1.07 1.07 0 0 0-.225.393c-.046.145-.06.298-.042.449s.069.297.148.427a1.08 1.08 0 0 0 .312.329zm6.836-5.153l2.765 4.408a1.07 1.07 0 0 0 .317.324 1.08 1.08 0 0 0 .424.165c.152.025.307.016.455-.024a1.08 1.08 0 0 0 .404-.208c1.05-.865 1.896-1.947 2.48-3.169a1.07 1.07 0 0 0 .016-.883 1.08 1.08 0 0 0-.263-.369 1.09 1.09 0 0 0-.393-.23l-4.959-1.604a1.08 1.08 0 0 0-1.247 1.589zm6.977-6.198a9.25 9.25 0 0 0-2.372-3.248c-.114-.1-.249-.175-.395-.219a1.08 1.08 0 0 0-.878.113c-.13.08-.241.186-.325.312l-2.918 4.31c-.559.829.222 1.903 1.185 1.627l5.016-1.43c.626-.184.946-.868.686-1.464h.001zM6.61 41.414a1.08 1.08 0 0 0-.349.268 1.07 1.07 0 0 0-.254.818c.016.146.064.288.138.415l4.898 8.457c.549.947 2.003.557 2.003-.534v-9.767c.002-.147-.028-.292-.086-.427s-.144-.257-.253-.357a1.07 1.07 0 0 0-.377-.226 1.08 1.08 0 0 0-.437-.057 15.08 15.08 0 0 0-5.284 1.411v-.002z" fill="#000"/><g clip-path="url(#B)"><path d="M60.226 50.282h10.598c.117.697.176 1.364.176 1.999 0 2.261-.444 4.279-1.33 6.055S67.519 61.5 65.876 62.5s-3.525 1.5-5.65 1.5c-1.51.004-3.002-.319-4.371-.946-1.384-.63-2.578-1.482-3.581-2.555s-1.8-2.348-2.389-3.828A12.5 12.5 0 0 1 49 52c0-1.636.294-3.192.885-4.672s1.386-2.755 2.389-3.828a11.21 11.21 0 0 1 3.582-2.556c1.368-.626 2.86-.949 4.369-.944 2.924 0 5.434 1.046 7.529 3.14l-3.056 3.14c-1.198-1.24-2.689-1.86-4.473-1.86-1.256 0-2.419.34-3.486 1.016s-1.913 1.596-2.536 2.759c-.627 1.173-.948 2.48-.936 3.804 0 1.375.313 2.644.936 3.804s1.469 2.082 2.536 2.759a6.38 6.38 0 0 0 3.486 1.015c.848 0 1.628-.125 2.339-.374s1.296-.564 1.754-.938a6.52 6.52 0 0 0 1.198-1.28c.342-.48.593-.932.754-1.36s.27-.834.329-1.219h-6.374v-4.124z" fill="#000"/></g><defs><clipPath id="A"><path fill="#fff" transform="translate(94)" d="M0 0h28v24H0z"/></clipPath><clipPath id="B"><path fill="#fff" transform="translate(49 40)" d="M0 0h22v24H0z"/></clipPath></defs></svg>