<svg xmlns="http://www.w3.org/2000/svg" width="124" height="31" fill="none" xmlns:v="https://vecta.io/nano"><path d="M0 29.671V11.293c0-.369.29-.664.653-.664h3.626c.363 0 .653.295.653.664s.363.59.653.369c1.378-.959 2.973-1.402 4.568-1.402 2.466 0 4.714 1.107 6.164 2.731.145.148.435.221.653 0 1.523-1.476 3.843-2.805 6.526-2.805s5.221 1.255 6.816 3.174c1.233 1.55 1.958 3.543 1.958 6.495v9.743c0 .369-.29.664-.725.664h-3.843c-.363 0-.725-.295-.725-.664v-9.964c0-1.771-.363-2.731-.943-3.395-.798-.886-1.958-1.255-2.901-1.255-2.103 0-3.843 1.402-4.568 2.436-.073.074-.073.221-.073.295.073.59.145 1.329.145 2.067v9.743c0 .369-.29.664-.725.664h-3.843c-.363 0-.725-.295-.725-.664v-9.891c0-1.771-.363-2.731-.943-3.395-.798-.886-1.958-1.255-2.901-1.255-2.103 0-3.626 1.402-4.423 2.288-.073.074-.073.148-.073.295v11.957c0 .369-.29.664-.653.664H.653C.29 30.336 0 30.041 0 29.671zM39.956.221a3.37 3.37 0 0 1 3.408 3.395 3.37 3.37 0 0 1-3.408 3.395 3.37 3.37 0 0 1-3.408-3.395C36.62 1.698 38.143.221 39.956.221zm1.958 30.114H38.07c-.363 0-.725-.295-.725-.664V12.843c0-1.476 1.16-2.657 2.611-2.657s2.611 1.181 2.611 2.657v16.829c0 .369-.29.664-.653.664zm14.575-14.614l3.263-4.798c.145-.148.363-.295.58-.295h4.206c.58 0 .87.664.58 1.107l-5.584 7.824a.64.64 0 0 0 0 .517l6.454 9.152c.29.443 0 1.107-.58 1.107h-4.496c-.218 0-.435-.074-.58-.295l-3.988-5.831c-.145-.221-.508-.221-.653 0l-3.988 5.831c-.145.148-.362.295-.58.295h-4.496c-.58 0-.87-.664-.58-1.107l6.454-9.152a.64.64 0 0 0 0-.517l-5.366-7.898c-.29-.443 0-1.107.58-1.107h4.278c.218 0 .435.074.58.295l3.263 4.798c.145.295.435.295.653.074zM72.37 30.705c-1.45 0-2.611-1.181-2.611-2.657V2.14c0-.369.29-.664.653-.664h3.843c.363 0 .653.295.653.664v25.981c0 1.402-1.088 2.583-2.538 2.583zm32.124-.369h3.625c.363 0 .653-.295.653-.664s.363-.59.653-.369c1.45 1.033 3.045 1.476 4.713 1.476 2.901 0 5.584-1.329 7.324-3.322 1.523-1.771 2.465-4.207 2.465-6.938 0-5.757-4.205-10.259-9.499-10.259-1.813 0-3.408.443-4.786 1.329-.29.221-.653 0-.653-.369V2.14c0-.369-.29-.664-.652-.664h-3.843c-.363 0-.653.295-.653.664v27.531c0 .369.29.664.653.664zm9.281-15.205c2.901 0 5.294 2.362 5.294 5.388 0 2.952-2.393 5.388-5.294 5.388s-5.293-2.436-5.293-5.388c.072-3.026 2.465-5.388 5.293-5.388zm-15.3-4.502h-3.626c-.363 0-.653.295-.653.664s-.363.59-.653.369c-1.45-.959-3.118-1.476-5.003-1.476-5.294 0-9.5 4.429-9.5 10.26 0 2.731.943 5.167 2.466 6.938 1.74 2.067 4.423 3.322 7.324 3.322 1.74 0 3.263-.443 4.713-1.476.29-.221.653 0 .653.369v.074c0 .369.29.664.653.664h3.626c.362 0 .653-.295.653-.664V11.293c.073-.369-.29-.664-.653-.664zm-9.354 15.205c-2.901 0-5.294-2.436-5.294-5.388 0-3.026 2.393-5.388 5.294-5.388s5.293 2.362 5.293 5.388c.073 3.026-2.32 5.388-5.293 5.388z" fill="#f5a61c"/></svg>